PathFileType	4	(X/Y/Z)	 s02c0301.trc
DataRate	CameraRate	NumFrames	NumMarkers	Units	OrigDataRate	OrigDataStartFrame	OrigNumFrames
200	200	5	51	mm	200	251	2000
Frame#	Time	racr			lacr			c7			jug			rlel			rdr			llel			ldr			s2			lic			ric			lasi			rasi			rpsi			lpsi			rgt			lgt			rth1			rth2			rth3			rth4			rlfc			rmfc			rsh1			rsh2			rsh3			rsh4			rlmal			rmmal			rcal			rtoe			rmt5			rmt1			lth1			lth2			lth4			lth3			llfc			lmfc			lsh1			lsh2			lsh3			lsh4			llmal			lmmal			lcal			ltoe			lmt5			SBIKE			LBIKE			RBIKE			
		X1	Y1	Z1	X2	Y2	Z2	X3	Y3	Z3	X4	Y4	Z4	X5	Y5	Z5	X6	Y6	Z6	X7	Y7	Z7	X8	Y8	Z8	X9	Y9	Z9	X10	Y10	Z10	X11	Y11	Z11	X12	Y12	Z12	X13	Y13	Z13	X14	Y14	Z14	X15	Y15	Z15	X16	Y16	Z16	X17	Y17	Z17	X18	Y18	Z18	X19	Y19	Z19	X20	Y20	Z20	X21	Y21	Z21	X22	Y22	Z22	X23	Y23	Z23	X24	Y24	Z24	X25	Y25	Z25	X26	Y26	Z26	X27	Y27	Z27	X28	Y28	Z28	X29	Y29	Z29	X30	Y30	Z30	X31	Y31	Z31	X32	Y32	Z32	X33	Y33	Z33	X34	Y34	Z34	X35	Y35	Z35	X36	Y36	Z36	X37	Y37	Z37	X38	Y38	Z38	X39	Y39	Z39	X40	Y40	Z40	X41	Y41	Z41	X42	Y42	Z42	X43	Y43	Z43	X44	Y44	Z44	X45	Y45	Z45	X46	Y46	Z46	X47	Y47	Z47	X48	Y48	Z48	X49	Y49	Z49	X50	Y50	Z50	X51	Y51	Z51	
251	1.2550	526.956979	1303.180974	-107.926028	558.939897	1281.424540	-434.902845	541.690554	1315.020789	-278.947203	487.726476	1188.414608	-271.307528	566.936225	1027.103062	-52.640327	726.251470	872.716858	-105.189842	574.150046	1018.033035	-554.737935	716.923592	844.342054	-493.875960	14.588987	1125.936371	-321.299990	170.129676	1115.990025	-450.532873	140.260036	1125.391662	-171.705909	201.523630	1066.080791	-429.051807	197.561108	1100.274677	-195.112884	42.788371	1171.803876	-276.162593	59.529100	1184.863029	-359.911675	111.505767	1055.360956	-133.344798	102.732880	1027.660625	-491.876000	193.075860	1022.857372	-126.350253	278.107247	1002.324588	-129.133558	342.319294	950.241617	-104.331262	293.325084	1026.498060	-154.310065	455.147385	850.640440	-134.946535	451.588298	835.307980	-246.139517	445.319727	737.262744	-120.428594	432.592969	651.179033	-143.063727	383.515902	580.167285	-138.518905	443.475709	650.868497	-180.002060	325.523328	477.484896	-146.067015	330.635620	496.770261	-227.119017	254.339018	419.702389	-187.740367	539.656265	444.028446	-183.531091	433.062530	415.340715	-123.910052	457.994381	435.909288	-232.786402	206.190131	925.814666	-504.840127	272.959742	869.854857	-501.565698	299.222301	888.566993	-483.310377	301.358257	785.363167	-501.158492	349.496190	697.224334	-473.672095	340.615121	670.027103	-368.060737	303.337951	604.148736	-495.392594	269.520485	526.174393	-478.962314	200.274947	468.812196	-486.627179	282.666231	519.378641	-441.099361	121.368680	394.096012	-476.447571	133.171182	383.616564	-397.885346	40.829617	386.443485	-438.827297	258.339104	199.595180	-433.198282	163.317083	245.156467	-498.032823	-125.680510	873.271671	-307.873648	37.898124	86.868564	-514.382680	34.065398	83.140078	-114.106941	
252	1.2600	527.783475	1302.295535	-106.294761	561.134282	1280.554384	-433.806084	543.252863	1314.198703	-277.919070	488.829674	1187.856784	-270.589244	565.647562	1025.865043	-52.307015	725.932874	872.677804	-105.219449	573.922521	1017.627495	-554.903883	716.850938	844.084396	-493.703926	15.482848	1127.184853	-321.738538	171.075419	1116.850489	-450.746832	140.873533	1126.521130	-172.009678	202.237961	1066.819787	-429.279051	198.114596	1101.161767	-195.359178	43.811607	1173.122271	-276.465498	60.636940	1186.359614	-360.200395	111.902069	1056.443231	-133.585289	103.691417	1028.659735	-492.034675	193.383834	1023.374302	-126.529822	278.343342	1002.423388	-129.065970	342.173990	949.900339	-104.347953	293.684923	1026.507867	-154.331471	454.463147	849.730173	-134.905197	450.917667	834.509439	-246.003417	444.648564	736.338621	-120.359737	432.074610	650.241994	-143.035803	383.219372	579.043702	-138.542099	442.971008	649.981696	-180.007386	325.374184	476.061412	-146.337547	330.672628	495.494451	-227.383123	254.383544	418.328620	-187.790123	539.556238	443.880943	-183.400930	433.317406	415.347977	-123.082834	457.953370	435.454402	-232.708634	207.108548	926.721095	-504.791939	273.787039	870.587691	-501.321518	300.024066	889.256585	-482.983094	301.936154	786.044148	-500.759039	349.863160	697.636605	-472.992082	340.468875	670.706066	-367.178160	303.592131	604.704888	-494.820450	269.670758	526.753643	-478.458142	200.451240	469.385830	-486.406027	282.686115	519.975149	-440.482255	121.332836	394.706794	-476.385479	133.123494	384.199290	-397.797163	40.733906	387.038818	-438.837769	258.099144	199.928703	-433.153180	163.124247	245.600182	-497.958821	-125.648572	873.287555	-307.800883	37.900494	86.879399	-514.386144	34.068984	83.137853	-114.111635	
253	1.2650	528.633822	1301.354945	-104.720298	563.273166	1279.701214	-432.729714	544.827368	1313.525670	-276.817560	489.908240	1187.279460	-269.807877	564.449844	1024.579420	-52.103698	725.622781	872.615671	-105.226046	573.865659	1017.271232	-555.146503	716.799758	843.893984	-493.580671	16.507028	1128.417702	-321.497464	172.128063	1117.603945	-450.893624	141.532584	1127.419622	-172.192566	202.921474	1067.513817	-429.342618	198.625871	1101.864840	-195.611763	44.931076	1174.413317	-276.864087	61.673212	1187.794651	-360.473743	112.413364	1057.647006	-133.872218	104.694531	1029.645926	-492.206125	193.781963	1023.935524	-126.736601	278.599251	1002.506620	-129.159537	342.119503	949.633374	-104.377497	294.126220	1026.447294	-154.433347	453.711197	848.780523	-134.949601	450.148577	833.464857	-245.929861	443.940982	735.356163	-120.300972	431.505402	649.187312	-143.113108	382.779420	578.020817	-138.634348	442.439672	649.012381	-180.017052	325.070323	475.201820	-146.209767	330.369259	494.399413	-227.359189	254.432955	416.889504	-187.864902	539.481549	443.733026	-183.264166	433.296504	414.641082	-123.005077	457.904539	434.942908	-232.614978	207.978349	927.509687	-504.769629	274.459472	871.150598	-500.923066	300.781609	889.854595	-482.684376	302.536825	786.636910	-500.398268	350.090776	698.150251	-472.344479	340.250700	671.246928	-366.424905	303.860719	605.246635	-494.217017	269.825100	527.297376	-477.999271	200.574993	470.016743	-486.066307	282.654955	520.314265	-439.983836	121.184761	395.283081	-476.327382	133.005396	384.792054	-397.711828	40.613600	387.632035	-438.862373	257.858444	200.348927	-433.128219	162.865836	246.089375	-497.911376	-125.610390	873.314397	-307.768108	37.899128	86.881058	-514.379428	34.067979	83.139933	-114.099375	
254	1.2700	529.505212	1300.573431	-103.083283	565.416191	1278.866510	-431.776583	546.381146	1312.723502	-275.725966	491.049248	1186.686413	-268.948779	563.512046	1023.247713	-52.159858	725.333600	872.533780	-105.243536	573.979031	1017.068754	-555.471040	716.741937	843.759524	-493.482600	17.660646	1129.667557	-321.182347	173.194764	1118.356271	-451.064315	142.135086	1128.461695	-172.462072	203.656595	1068.030861	-429.341876	199.144348	1102.555147	-195.870235	45.956963	1175.803869	-277.253218	62.616338	1189.170320	-360.703156	112.893367	1058.664097	-134.144150	105.713906	1030.571586	-492.418147	194.235680	1024.517638	-126.921104	278.977379	1002.565034	-129.321515	342.175620	949.367414	-104.467221	294.616831	1026.315708	-154.633277	453.050073	847.755378	-134.928123	449.432150	832.443513	-245.916647	443.237503	734.288135	-120.311867	431.071294	648.088587	-143.184465	382.514999	576.809863	-138.953205	441.899705	647.979977	-180.046033	324.952329	473.686219	-146.542587	330.259759	493.087066	-227.571650	254.494078	415.403409	-187.963909	539.416670	443.528875	-183.145413	433.137150	413.329738	-123.690330	457.918611	434.371918	-232.551279	208.872910	928.256829	-504.776880	275.282870	871.846028	-500.887813	301.502498	890.363141	-482.264797	303.079327	787.119507	-500.025599	350.361652	698.681105	-471.603202	340.032702	671.764503	-365.750522	304.107708	605.755027	-493.653714	269.927759	527.899318	-477.479767	200.641424	470.599792	-485.767111	282.604172	521.079678	-439.341877	121.004089	395.963275	-476.263558	132.837242	385.398886	-397.629438	40.403938	388.229289	-438.882785	257.584733	200.884604	-433.086345	162.606182	246.535729	-497.897409	-125.575146	873.325415	-307.734062	37.897790	86.895433	-514.373037	34.064129	83.152534	-114.099280	
255	1.2750	530.438544	1299.779194	-101.667922	567.630740	1278.156219	-430.923817	547.941832	1312.039986	-274.645434	492.218961	1186.228303	-268.064743	562.448226	1022.140401	-52.086169	725.076172	872.502810	-105.294832	574.289529	1017.000175	-555.842122	716.718060	843.623120	-493.504333	18.586605	1130.894672	-321.648249	174.243494	1119.176649	-451.231973	142.816850	1129.272212	-172.691289	204.336781	1068.623726	-429.399323	199.685371	1103.289509	-196.122051	47.067196	1177.150759	-277.666535	63.628427	1190.542027	-360.984977	113.395579	1059.655990	-134.476428	106.727775	1031.532126	-492.607833	194.743808	1025.031442	-127.151852	279.382409	1002.642824	-129.459075	342.159268	949.310519	-104.525191	295.148267	1026.208772	-154.872449	452.320792	846.706734	-134.969008	448.612004	831.296475	-245.828258	442.505381	733.253427	-120.344722	430.527858	647.169516	-143.112931	382.230546	575.659831	-139.043741	441.447545	646.937117	-180.107050	324.730688	472.568743	-146.680622	329.853221	491.828320	-227.583214	254.566905	413.897641	-188.085009	539.357541	443.318237	-183.043794	433.412032	413.240043	-122.909413	457.921813	433.796108	-232.479345	209.761910	928.916709	-504.756624	276.040149	872.338559	-500.617420	302.180298	890.813163	-481.876553	303.640627	787.603089	-499.670954	350.661538	699.063916	-470.856128	339.816261	672.295179	-365.020394	304.296882	606.236886	-493.093752	270.014194	528.386725	-477.013886	200.677622	471.167996	-485.436529	282.454268	521.580974	-438.738142	120.794671	396.538193	-476.240640	132.637383	386.025395	-397.549019	40.167296	388.797760	-438.887579	257.319510	201.339582	-433.021968	162.330480	247.066677	-497.865871	-125.548752	873.322061	-307.705776	37.894666	86.906851	-514.378098	34.067225	83.142647	-114.086714	
